<svg xmlns="http://www.w3.org/2000/svg" xml:space="preserve" width="2048" height="2048" style="shape-rendering:geometricPrecision;text-rendering:geometricPrecision;image-rendering:optimizeQuality;fill-rule:evenodd;clip-rule:evenodd"><defs><style>.fil11{fill:#e1f5fe}</style></defs><g id="Layer_x0020_1"><g id="_353053240"><path d="M365 256h1319c30 0 57 12 77 32s32 47 32 77v1319c0 30-12 57-32 77s-47 32-77 32H365c-30 0-57-12-77-32s-32-47-32-77V365c0-30 12-57 32-77s47-32 77-32z" style="fill:#bdbdbd"/><path d="M365 256h1319c30 0 57 12 77 32s32 47 32 77v420H257V365c0-30 12-57 32-77s47-32 77-32z" style="fill:#424242"/><path style="fill:#0288d1" d="M418 1280h574v352H386v-352z"/><path style="fill:#33691e" d="M418 832h574v352H386V832z"/><path style="fill:#2f5c1e" d="M418 1184h574v32H386v-32z"/><path style="fill:#0277bd" d="M418 1664h574v-32H386v32z"/><path style="fill:#ef6c00" d="M1088 1184h574v32h-606v-32z"/><path style="fill:#bc040b" d="M1088 1664h574v-32h-606v32z"/><path style="fill:#f57f17" d="M1088 832h574v352h-606V832z"/><path style="fill:#d50000" d="M1088 1280h574v352h-606v-352z"/><path style="fill:#81d4fa" d="M418 384h1244v352H386V384z"/><path class="fil11" d="M640 1120v-64h-64v-64h64v-64h64v64h64v64h-64v64zM717 1563l-45-46-45 46-46-46 46-45-46-45 46-46 45 46 45-46 46 46-46 45 46 45zM1247 992h224v64h-224zM1247 1488h224v64h-224zM1247 1392h224v64h-224z"/></g><path style="fill:none" d="M0 0h2048v2048H0z"/></g></svg>