<svg xmlns="http://www.w3.org/2000/svg" viewBox="0 0 128 128" style="enable-background:new 0 0 128 128" xml:space="preserve"><path style="fill:#303030" d="M125.61 71.81H2.39A2.39 2.39 0 0 1 0 69.42v-9.787a2.39 2.39 0 0 1 2.39-2.39h123.22a2.39 2.39 0 0 1 2.39 2.39v9.787a2.39 2.39 0 0 1-2.39 2.39zM64 31.237c4.627 0 8.378-3.746 8.378-8.366S68.627 14.504 64 14.504s-8.378 3.746-8.378 8.366 3.751 8.367 8.378 8.367zm0 82.168c4.627 0 8.378-3.746 8.378-8.366S68.627 96.672 64 96.672s-8.378 3.746-8.378 8.366 3.751 8.367 8.378 8.367z"/></svg>