<svg xmlns="http://www.w3.org/2000/svg" xml:space="preserve" width="655.359" height="655.359" style="shape-rendering:geometricPrecision;text-rendering:geometricPrecision;image-rendering:optimizeQuality;fill-rule:evenodd;clip-rule:evenodd" viewBox="0 0 6.827 6.827"><defs><style>.fil0{fill:none}.fil3{fill:#dce775}</style></defs><g id="Layer_x0020_1"><g id="_490149960"><path id="_490149888" class="fil0" d="M0 0h6.827v6.827H0z"/><path id="_490149864" class="fil0" d="M.853.853h5.12v5.12H.853z"/></g><path d="M5.12 1.545a.367.367 0 0 0-.361-.372H2.068c-.2 0-.361.167-.361.372v3.95c0 .205.162.372.36.372H4.76c.199 0 .361-.167.361-.372v-3.95z" style="fill:#ff5252"/><path d="M4.236 3.947h.381c.042 0 .076.034.076.076v1.34a.076.076 0 0 1-.076.077h-.38a.076.076 0 0 1-.077-.076V4.023c0-.042.034-.076.076-.076z" style="fill:#c0ca33"/><path class="fil3" d="M3.27 4.907h.32c.058 0 .106.048.106.106v.32a.107.107 0 0 1-.106.107h-.32a.107.107 0 0 1-.107-.107v-.32c0-.058.048-.106.107-.106zM2.24 4.907h.32c.059 0 .107.048.107.106v.32a.107.107 0 0 1-.107.107h-.32a.107.107 0 0 1-.107-.107v-.32c0-.058.048-.106.107-.106zM3.27 3.947h.32c.058 0 .106.048.106.106v.32a.107.107 0 0 1-.106.107h-.32a.107.107 0 0 1-.107-.107v-.32c0-.058.048-.106.107-.106zM2.24 3.947h.32c.059 0 .107.048.107.106v.32a.107.107 0 0 1-.107.107h-.32a.107.107 0 0 1-.107-.107v-.32c0-.058.048-.106.107-.106zM4.267 2.987h.32c.058 0 .106.048.106.106v.32a.107.107 0 0 1-.106.107h-.32a.107.107 0 0 1-.107-.107v-.32c0-.058.048-.106.107-.106zM3.27 2.987h.32c.058 0 .106.048.106.106v.32a.107.107 0 0 1-.106.107h-.32a.107.107 0 0 1-.107-.107v-.32c0-.058.048-.106.107-.106zM2.24 2.987h.32c.059 0 .107.048.107.106v.32a.107.107 0 0 1-.107.107h-.32a.107.107 0 0 1-.107-.107v-.32c0-.058.048-.106.107-.106z"/><path d="M2.24 1.6h2.347c.058 0 .106.048.106.107v.746a.107.107 0 0 1-.106.107H2.24a.107.107 0 0 1-.107-.107v-.746c0-.059.048-.107.107-.107z" style="fill:#fce4ec"/></g></svg>