<svg xmlns="http://www.w3.org/2000/svg" viewBox="0 0 128 128" style="enable-background:new 0 0 128 128" xml:space="preserve"><path style="fill:#303030" d="M125.079 111.058c3.868 3.862 3.868 10.067 0 13.888v.041c-3.827 3.821-10.081 3.821-13.908 0L63.974 77.858l-47.155 47.129c-3.868 3.821-10.081 3.821-13.908 0l-.041-.041c-3.827-3.821-3.827-10.026 0-13.888L50.066 63.97 2.87 16.841C-.957 13.02-.957 6.774 2.87 2.953h.041c3.827-3.862 10.04-3.862 13.908 0l47.155 47.088 47.197-47.088c3.827-3.862 10.081-3.862 13.908 0A9.736 9.736 0 0 1 128 9.897a9.736 9.736 0 0 1-2.921 6.944L77.923 63.97l47.156 47.088z"/></svg>